<svg xmlns="http://www.w3.org/2000/svg" width="456" height="456" viewBox="0 0 456 456"><g opacity="0.44"><path d="M0,0H456V456H0Z" fill="none" fill-rule="evenodd"/><path d="M33.077,242.285C13.507,221.5,3,198.186,3,160.4,3,93.9,49.683,34.292,117.57,4.823l16.967,26.182C71.172,65.281,58.784,109.76,53.844,137.8c10.2-5.282,23.56-7.125,36.651-5.909,34.276,3.173,61.294,31.312,61.294,66.291a66.5,66.5,0,0,1-66.5,66.5,73.549,73.549,0,0,1-52.212-22.4Zm190,0C203.507,221.5,193,198.186,193,160.4c0-66.5,46.683-126.1,114.57-155.572l16.967,26.182c-63.365,34.276-75.753,78.755-80.693,106.8,10.2-5.282,23.56-7.125,36.651-5.909,34.276,3.173,61.294,31.312,61.294,66.291a66.5,66.5,0,0,1-66.5,66.5,73.549,73.549,0,0,1-52.212-22.4Z" transform="translate(54 86.814)" fill="#ccd4f9"/></g></svg>